<svg id="Lv1_icons_novel" data-name="Lv1/icons/novel" xmlns="http://www.w3.org/2000/svg" width="32" height="24.889" viewBox="0 0 32 24.889">
  <path id="book-open" d="M30.124,32c-3.044.173-9.1.8-12.831,3.088a.854.854,0,0,0-.4.732V56.034a.879.879,0,0,0,1.293.749c3.843-1.934,9.4-2.462,12.15-2.607A1.733,1.733,0,0,0,32,52.474V33.7A1.742,1.742,0,0,0,30.124,32ZM14.707,35.087C10.972,32.8,4.921,32.172,1.877,32A1.742,1.742,0,0,0,0,33.7v18.77a1.732,1.732,0,0,0,1.668,1.7c2.749.144,8.311.673,12.154,2.608a.877.877,0,0,0,1.289-.748V35.809A.836.836,0,0,0,14.707,35.087Z" transform="translate(0 -31.996)" fill="#fff"/>
</svg>
