<svg xmlns="http://www.w3.org/2000/svg" width="32" height="31.969" viewBox="0 0 32 31.969">
  <g id="Lv1_icons_close" data-name="Lv1/icons/close" transform="translate(0)">
    <path id="XMLID_732_" d="M51.121,47.19a2.744,2.744,0,0,1,0,3.931,2.818,2.818,0,0,1-3.931,0L35.95,39.881,24.71,51.121a2.818,2.818,0,0,1-3.931,0,2.744,2.744,0,0,1,0-3.931l11.24-11.24L20.779,24.71a2.78,2.78,0,0,1,3.931-3.931l11.24,11.24,11.24-11.24a2.78,2.78,0,0,1,3.931,3.931L39.881,35.95Z" transform="translate(-19.95 -19.95)" fill="#fff"/>
  </g>
</svg>
