<svg xmlns="http://www.w3.org/2000/svg" xmlns:xlink="http://www.w3.org/1999/xlink" width="32.565" height="42" viewBox="0 0 32.565 42">
  <defs>
    <filter id="chevron-right" x="0" y="0" width="32.565" height="42" filterUnits="userSpaceOnUse">
      <feOffset input="SourceAlpha"/>
      <feGaussianBlur stdDeviation="3" result="blur"/>
      <feFlood flood-color="#434851"/>
      <feComposite operator="in" in2="blur"/>
      <feComposite in="SourceGraphic"/>
    </filter>
  </defs>
  <g id="Lv1_icons_chevron-right" data-name="Lv1/icons/chevron-right" transform="translate(9 9)">
    <g transform="matrix(1, 0, 0, 1, -9, -9)" filter="url(#chevron-right)">
      <path id="chevron-right-2" data-name="chevron-right" d="M41.673,50.59,30.992,61.271a1.319,1.319,0,0,1-1.865,0l-1.246-1.246a1.319,1.319,0,0,1,0-1.863l8.465-8.5-8.465-8.5a1.319,1.319,0,0,1,0-1.863l1.246-1.246a1.319,1.319,0,0,1,1.865,0L41.673,48.725A1.319,1.319,0,0,1,41.673,50.59Z" transform="translate(-18.49 -28.66)" fill="#fff" opacity="0.7"/>
    </g>
  </g>
</svg>
