<svg xmlns="http://www.w3.org/2000/svg" viewBox="0 0 310.25 90.93"><defs><style>.cls-1{fill:#f6a700;}.cls-2{fill:#ff212a;}.cls-3{fill:#c70b19;}.cls-4{fill:#e6002a;}.cls-5{fill:#fbca4a;}.cls-6{fill:#383939;}</style></defs><g id="レイヤー_2" data-name="レイヤー 2"><g id="design"><polygon class="cls-1" points="52.58 30.36 35.11 20.27 35.11 40.44 52.58 30.36"/><polygon class="cls-2" points="17.56 50.58 35.11 40.44 35.11 20.27 17.56 10.14 17.56 50.58"/><polygon class="cls-3" points="0.09 20.2 17.56 10.11 17.56 30.28 0.09 20.2"/><polygon class="cls-4" points="17.47 30.31 0 20.22 0 40.4 17.47 30.31"/><polygon class="cls-5" points="17.47 50.53 0 40.45 0 60.62 17.47 50.53"/><polygon class="cls-3" points="0.09 60.65 17.56 50.56 17.56 70.73 0.09 60.65"/><polygon class="cls-3" points="0 80.84 17.47 70.76 17.47 90.93 0 80.84"/><polygon class="cls-4" points="17.47 70.76 0 60.67 0 80.84 17.47 70.76"/><polygon class="cls-5" points="17.78 30.31 35.25 20.22 35.25 40.4 17.78 30.31"/><polygon class="cls-4" points="35.16 40.42 17.7 30.34 17.7 50.51 35.16 40.42"/><polygon class="cls-4" points="35.02 20.2 17.56 10.11 17.56 30.28 35.02 20.2"/><polygon class="cls-1" points="0.09 40.42 17.56 30.34 17.56 50.51 0.09 40.42"/><polygon class="cls-1" points="17.47 10.09 0 0 0 20.17 17.47 10.09"/><path class="cls-6" d="M76.26,18.22H96a39.06,39.06,0,0,1,7.81.75,17.73,17.73,0,0,1,6.42,2.59,13.17,13.17,0,0,1,4.35,5,16.92,16.92,0,0,1,1.62,7.85,18.08,18.08,0,0,1-1.51,7.8,12.67,12.67,0,0,1-4.13,5,16.6,16.6,0,0,1-6.23,2.67,36.8,36.8,0,0,1-7.8.79H88V71.37H76.26ZM88,40.74h7.81a15.14,15.14,0,0,0,3-.3,8,8,0,0,0,2.62-1,5.34,5.34,0,0,0,1.88-2,6.09,6.09,0,0,0,.71-3.11,5.33,5.33,0,0,0-.93-3.27,6.31,6.31,0,0,0-2.41-1.91,10.36,10.36,0,0,0-3.26-.87c-1.2-.12-2.36-.18-3.46-.18H88Z"/><path class="cls-6" d="M121.37,23.4A6.54,6.54,0,1,1,132.52,28a6.54,6.54,0,0,1-11.15-4.61Zm.91,11.48h11.26V71.37H122.28Z"/><path class="cls-6" d="M154.48,51.85l-12.16-17h13.29l6.45,9.91,6.23-9.91h12.54L169,51.85l14,19.52H169.72l-8-12.16L153.2,71.37H140.07Z"/><path class="cls-6" d="M210.78,66.79h-.15a10.56,10.56,0,0,1-5,4.2,17.2,17.2,0,0,1-6.57,1.28,16.83,16.83,0,0,1-4.92-.72A12.33,12.33,0,0,1,190,69.42a10.44,10.44,0,0,1-2.85-3.53A10.66,10.66,0,0,1,186.08,61a11.11,11.11,0,0,1,1.17-5.33,10.42,10.42,0,0,1,3.15-3.61,15.59,15.59,0,0,1,4.54-2.21,32.62,32.62,0,0,1,5.3-1.16,50.39,50.39,0,0,1,5.48-.45c1.82,0,3.51-.08,5.06-.08a5.86,5.86,0,0,0-2.14-4.77,7.72,7.72,0,0,0-5.06-1.76,11.06,11.06,0,0,0-5.07,1.16A13.87,13.87,0,0,0,194.42,46l-6-6.15a20.62,20.62,0,0,1,7.36-4.39A26.16,26.16,0,0,1,204.48,34a22.66,22.66,0,0,1,8.14,1.24,11.91,11.91,0,0,1,5.11,3.64,14.12,14.12,0,0,1,2.66,5.89,38.75,38.75,0,0,1,.75,8.07V71.37H210.78ZM208,55.38c-.86,0-1.92,0-3.2.11a15.84,15.84,0,0,0-3.67.64,8.22,8.22,0,0,0-3,1.57,3.67,3.67,0,0,0-1.24,2.93,3.22,3.22,0,0,0,1.73,3,7.12,7.12,0,0,0,3.6,1,11.35,11.35,0,0,0,3.2-.45,9.45,9.45,0,0,0,2.74-1.28,6.21,6.21,0,0,0,1.91-2.1,6,6,0,0,0,.71-3v-2.4Z"/><path class="cls-6" d="M266.48,68.29q0,10.36-5.21,15.73t-15.88,5.36a43,43,0,0,1-9.61-1.08,21.72,21.72,0,0,1-8.71-4.25l6.23-9.3a23.48,23.48,0,0,0,5.52,3.45,15.54,15.54,0,0,0,6.34,1.27c3.46,0,6-.83,7.62-2.51a8.84,8.84,0,0,0,2.44-6.42V67h-.15a10.57,10.57,0,0,1-4.84,3.72,15.61,15.61,0,0,1-5.44,1.09,18.75,18.75,0,0,1-7.36-1.39,16.49,16.49,0,0,1-5.67-3.91,17.41,17.41,0,0,1-3.64-6A22.67,22.67,0,0,1,228,45.92a19.49,19.49,0,0,1,3.3-6.08,16.58,16.58,0,0,1,5.22-4.24,14.76,14.76,0,0,1,7-1.62,17.11,17.11,0,0,1,8,1.88,12.91,12.91,0,0,1,2.7,1.84,11.48,11.48,0,0,1,1.8,2h.15V34.88h10.36ZM238.11,52.9a8.72,8.72,0,0,0,2.59,6.27,9.87,9.87,0,0,0,2.85,2,8.75,8.75,0,0,0,7.09,0,9.8,9.8,0,0,0,2.89-2,8.84,8.84,0,0,0,0-12.54,9.8,9.8,0,0,0-2.89-2,8.75,8.75,0,0,0-7.09,0,9.87,9.87,0,0,0-2.85,2,8.72,8.72,0,0,0-2.59,6.27Z"/><path class="cls-6" d="M308.52,65.06a18,18,0,0,1-6.83,5.33,20.46,20.46,0,0,1-8.56,1.88,23,23,0,0,1-7.92-1.35,19,19,0,0,1-6.45-3.87,18.14,18.14,0,0,1-4.32-6,20.47,20.47,0,0,1,0-15.77,18.14,18.14,0,0,1,4.32-6,19,19,0,0,1,6.45-3.87A23,23,0,0,1,293.13,34a18,18,0,0,1,7.1,1.35,14.72,14.72,0,0,1,5.4,3.87,17.58,17.58,0,0,1,3.42,6,24.41,24.41,0,0,1,1.2,7.88v3.53H284.13a8.92,8.92,0,0,0,2.92,5.15,8.32,8.32,0,0,0,5.56,1.91,8.43,8.43,0,0,0,4.69-1.24,12.47,12.47,0,0,0,3.34-3.19ZM299,49a6.51,6.51,0,0,0-1.88-4.88,6.65,6.65,0,0,0-5-2,8.45,8.45,0,0,0-3.3.6,8.25,8.25,0,0,0-2.44,1.54,6.77,6.77,0,0,0-1.58,2.18,7,7,0,0,0-.63,2.59Z"/></g></g></svg>