<svg xmlns="http://www.w3.org/2000/svg" viewBox="0 0 52.58 90.93"><defs><style>.cls-1{fill:#f6a700;}.cls-2{fill:#ff212a;}.cls-3{fill:#c70b19;}.cls-4{fill:#e6002a;}.cls-5{fill:#fbca4a;}</style></defs><g id="レイヤー_2" data-name="レイヤー 2"><g id="design"><polygon class="cls-1" points="52.58 30.36 35.11 20.27 35.11 40.44 52.58 30.36"/><polygon class="cls-2" points="17.56 50.58 35.11 40.44 35.11 20.27 17.56 10.14 17.56 50.58"/><polygon class="cls-3" points="0.09 20.2 17.56 10.11 17.56 30.28 0.09 20.2"/><polygon class="cls-4" points="17.47 30.31 0 20.22 0 40.4 17.47 30.31"/><polygon class="cls-5" points="17.47 50.53 0 40.45 0 60.62 17.47 50.53"/><polygon class="cls-3" points="0.09 60.65 17.56 50.56 17.56 70.73 0.09 60.65"/><polygon class="cls-3" points="0 80.84 17.47 70.76 17.47 90.93 0 80.84"/><polygon class="cls-4" points="17.47 70.76 0 60.67 0 80.84 17.47 70.76"/><polygon class="cls-5" points="17.78 30.31 35.25 20.22 35.25 40.4 17.78 30.31"/><polygon class="cls-4" points="35.16 40.42 17.7 30.34 17.7 50.51 35.16 40.42"/><polygon class="cls-4" points="35.02 20.2 17.56 10.11 17.56 30.28 35.02 20.2"/><polygon class="cls-1" points="0.09 40.42 17.56 30.34 17.56 50.51 0.09 40.42"/><polygon class="cls-1" points="17.47 10.09 0 0 0 20.17 17.47 10.09"/></g></g></svg>