<svg id="Lv1_logo" data-name="Lv1/logo" xmlns="http://www.w3.org/2000/svg" width="109" height="32" viewBox="0 0 109 32">
  <g id="グループ_4" data-name="グループ 4">
    <path id="パス_20" data-name="パス 20" d="M41.261,23.856,35.1,20.3v7.076Z" transform="translate(-22.744 -13.154)" fill="#8b96ad"/>
    <path id="パス_21" data-name="パス 21" d="M17.6,24.357l6.161-3.591V13.691L17.6,10.1Z" transform="translate(-11.404 -6.544)" fill="#8b96ad"/>
    <path id="パス_22" data-name="パス 22" d="M.1,13.656,6.261,10.1v7.111Z" transform="translate(-0.065 -6.544)" fill="#8b96ad"/>
    <path id="パス_23" data-name="パス 23" d="M6.161,23.756,0,20.2v7.111Z" transform="translate(0 -13.089)" fill="#8b96ad"/>
    <path id="パス_24" data-name="パス 24" d="M6.161,43.956,0,40.4v7.111Z" transform="translate(0 -26.178)" fill="#8b96ad"/>
    <path id="パス_25" data-name="パス 25" d="M.1,54.12,6.261,50.6v7.076Z" transform="translate(-0.065 -32.787)" fill="#8b96ad"/>
    <path id="パス_26" data-name="パス 26" d="M0,74.32,6.161,70.8v7.076Z" transform="translate(0 -45.876)" fill="#8b96ad"/>
    <path id="パス_27" data-name="パス 27" d="M6.161,64.256,0,60.7v7.076Z" transform="translate(0 -39.331)" fill="#8b96ad"/>
    <path id="パス_28" data-name="パス 28" d="M17.8,23.756,23.961,20.2v7.111Z" transform="translate(-11.534 -13.089)" fill="#8b96ad"/>
    <path id="パス_29" data-name="パス 29" d="M23.861,33.856,17.7,30.3v7.111Z" transform="translate(-11.469 -19.633)" fill="#8b96ad"/>
    <path id="パス_30" data-name="パス 30" d="M23.725,13.656,17.6,10.1v7.111Z" transform="translate(-11.404 -6.544)" fill="#8b96ad"/>
    <path id="パス_31" data-name="パス 31" d="M.1,33.856,6.261,30.3v7.111Z" transform="translate(-0.065 -19.633)" fill="#8b96ad"/>
    <path id="パス_32" data-name="パス 32" d="M6.161,3.556,0,0V7.111Z" fill="#8b96ad"/>
  </g>
  <g id="グループ_6" data-name="グループ 6" transform="translate(26.659 5.949)">
    <g id="グループ_5" data-name="グループ 5">
      <path id="パス_33" data-name="パス 33" d="M76.3,18.2h6.935a13.425,13.425,0,0,1,2.746.282,6.19,6.19,0,0,1,2.253.915,4.719,4.719,0,0,1,1.549,1.76,5.875,5.875,0,0,1,.563,2.746,6.366,6.366,0,0,1-.528,2.746,4.482,4.482,0,0,1-1.443,1.76,6.142,6.142,0,0,1-2.183.95,11.344,11.344,0,0,1-2.746.282H80.419v7.287H76.3Zm4.119,7.921h2.746a4.877,4.877,0,0,0,1.056-.106,2.369,2.369,0,0,0,.915-.352,1.843,1.843,0,0,0,.669-.7,2.088,2.088,0,0,0,.246-1.091,1.97,1.97,0,0,0-.317-1.162,1.993,1.993,0,0,0-.845-.669,4.034,4.034,0,0,0-1.162-.317c-.422-.035-.845-.07-1.232-.07H80.384v4.471Z" transform="translate(-76.3 -17.742)" fill="#8b96ad"/>
      <path id="パス_34" data-name="パス 34" d="M121.4,19.188a2.284,2.284,0,1,1,.669,1.619A2.179,2.179,0,0,1,121.4,19.188Zm.317,4.048h3.978V36.086h-3.978Z" transform="translate(-105.523 -16.9)" fill="#8b96ad"/>
      <path id="パス_35" data-name="パス 35" d="M145.04,40.785,140.745,34.8h4.682l2.288,3.485L149.9,34.8h4.4l-4.189,5.985,4.929,6.865h-4.682l-2.816-4.295-3.028,4.295H139.9Z" transform="translate(-117.511 -28.499)" fill="#8b96ad"/>
      <path id="パス_36" data-name="パス 36" d="M194.73,45.482H194.7a3.584,3.584,0,0,1-1.76,1.479,5.822,5.822,0,0,1-2.323.458,5.681,5.681,0,0,1-1.725-.246,4.853,4.853,0,0,1-1.479-.739,3.829,3.829,0,0,1-1.021-1.232,4.184,4.184,0,0,1,.035-3.591,3.269,3.269,0,0,1,1.127-1.267,4.751,4.751,0,0,1,1.584-.774A15.971,15.971,0,0,1,191,39.145c.634-.07,1.3-.141,1.936-.176.634,0,1.232-.035,1.8-.035a2.114,2.114,0,0,0-.739-1.69,2.665,2.665,0,0,0-1.8-.634,3.856,3.856,0,0,0-1.8.422,4.869,4.869,0,0,0-1.443,1.127l-2.112-2.183a7.225,7.225,0,0,1,2.605-1.549,9.039,9.039,0,0,1,3.063-.528,8.122,8.122,0,0,1,2.852.422,4.173,4.173,0,0,1,1.8,1.267,4.911,4.911,0,0,1,.951,2.077,13.466,13.466,0,0,1,.282,2.851v6.513H194.73Zm-.986-4.013c-.317,0-.669,0-1.126.035a7.737,7.737,0,0,0-1.3.211,3.019,3.019,0,0,0-1.056.563,1.3,1.3,0,0,0-.422,1.021,1.121,1.121,0,0,0,.6,1.056,2.47,2.47,0,0,0,1.267.352,3.967,3.967,0,0,0,1.127-.176,2.974,2.974,0,0,0,.951-.458,2.662,2.662,0,0,0,.669-.739,2.126,2.126,0,0,0,.246-1.056v-.845h-.951Z" transform="translate(-147.382 -27.915)" fill="#8b96ad"/>
      <path id="パス_37" data-name="パス 37" d="M240.776,46.01a7.592,7.592,0,0,1-1.831,5.527q-1.848,1.9-5.6,1.9a15.3,15.3,0,0,1-3.38-.387,7.3,7.3,0,0,1-3.063-1.479l2.183-3.274a8.937,8.937,0,0,0,1.936,1.232,5.107,5.107,0,0,0,2.218.458,3.5,3.5,0,0,0,2.675-.88,3.139,3.139,0,0,0,.845-2.253v-1.3h-.035a3.563,3.563,0,0,1-1.69,1.3,5.548,5.548,0,0,1-1.9.387,6.868,6.868,0,0,1-2.605-.493,5.669,5.669,0,0,1-2.007-1.373,5.841,5.841,0,0,1-1.267-2.112,7.238,7.238,0,0,1-.458-2.675,7.607,7.607,0,0,1,.422-2.5,7.42,7.42,0,0,1,1.162-2.147,5.312,5.312,0,0,1,1.831-1.479,5.186,5.186,0,0,1,2.464-.563,6.941,6.941,0,0,1,1.549.176,6.778,6.778,0,0,1,1.267.493,5.552,5.552,0,0,1,.95.634,2.861,2.861,0,0,1,.634.7h.07v-1.69h3.661V46.01Zm-10-5.421a2.807,2.807,0,0,0,.246,1.2,3.936,3.936,0,0,0,.669,1.021,3.517,3.517,0,0,0,1.021.7,3.037,3.037,0,0,0,1.267.282,2.444,2.444,0,0,0,1.232-.282,3.516,3.516,0,0,0,1.021-.7,2.859,2.859,0,0,0,.669-1.021,3.03,3.03,0,0,0,0-2.394,3.936,3.936,0,0,0-.669-1.021,3.517,3.517,0,0,0-1.021-.7,3,3,0,0,0-1.232-.282,3.037,3.037,0,0,0-1.267.282,4.063,4.063,0,0,0-1.021.7,2.859,2.859,0,0,0-.669,1.021A2.807,2.807,0,0,0,230.778,40.589Z" transform="translate(-173.819 -27.915)" fill="#8b96ad"/>
      <path id="パス_38" data-name="パス 38" d="M285.368,44.883a6.232,6.232,0,0,1-2.394,1.866,7.021,7.021,0,0,1-3.027.669,8.109,8.109,0,0,1-2.781-.493,6.844,6.844,0,0,1-2.288-1.373,6.462,6.462,0,0,1-1.514-2.112,7.147,7.147,0,0,1,0-5.562,6.242,6.242,0,0,1,1.514-2.112,6.512,6.512,0,0,1,2.288-1.373,8.109,8.109,0,0,1,2.781-.493,6.33,6.33,0,0,1,2.5.493,5.273,5.273,0,0,1,1.9,1.373,6.225,6.225,0,0,1,1.2,2.112,8.7,8.7,0,0,1,.422,2.781v1.232h-9.188a3.046,3.046,0,0,0,1.021,1.8,2.912,2.912,0,0,0,1.971.669,3.04,3.04,0,0,0,1.655-.422,3.932,3.932,0,0,0,1.162-1.127Zm-3.344-5.668a2.419,2.419,0,0,0-.669-1.725,2.284,2.284,0,0,0-1.76-.7,2.855,2.855,0,0,0-1.162.211,2.479,2.479,0,0,0-.845.528,2.434,2.434,0,0,0-.563.774,2.054,2.054,0,0,0-.211.915Z" transform="translate(-203.625 -27.915)" fill="#8b96ad"/>
    </g>
  </g>
</svg>
